<?xml version="1.0" standalone="no"?>
<!DOCTYPE svg PUBLIC "-//W3C//DTD SVG 20010904//EN"
 "http://www.w3.org/TR/2001/REC-SVG-20010904/DTD/svg10.dtd">
<svg version="1.0" xmlns="http://www.w3.org/2000/svg"
 width="900.000000pt" height="500.000000pt" viewBox="0 0 900.000000 500.000000"
 preserveAspectRatio="xMidYMid meet">
<metadata>
Created by potrace 1.15, written by Peter Selinger 2001-2017
</metadata>
<g transform="translate(0.000000,500.000000) scale(0.100000,-0.100000)"
fill="#000000" stroke="none">
<path d="M2300 4358 c0 -3 -59 -196 -130 -429 -72 -233 -131 -427 -133 -432
-2 -5 -325 299 -654 616 l-42 40 35 -129 c18 -71 74 -277 123 -459 49 -181 87
-332 85 -334 -2 -2 -200 42 -440 98 -241 56 -439 99 -441 97 -4 -4 154 -183
504 -572 l73 -81 -543 -183 c-298 -101 -544 -185 -546 -186 -2 -2 300 -4 672
-4 l677 0 0 50 0 50 -107 0 c-60 0 -227 3 -372 7 l-264 6 331 91 c182 50 333
94 337 97 3 4 -100 129 -230 279 -130 150 -234 274 -231 277 2 3 163 -38 356
-91 193 -53 355 -96 360 -96 4 0 -34 165 -86 367 -51 202 -92 368 -90 370 2 2
124 -109 272 -246 148 -137 270 -248 271 -247 1 1 50 156 107 345 58 189 107
345 109 347 2 2 55 -149 118 -336 63 -187 116 -340 119 -340 3 0 120 110 260
244 140 134 256 242 258 241 2 -2 -40 -170 -93 -375 -53 -205 -95 -374 -93
-376 2 -2 170 41 373 96 203 55 370 98 372 97 1 -2 -110 -124 -247 -272 -137
-149 -249 -273 -250 -276 0 -4 28 -16 63 -26 34 -11 171 -53 305 -94 l243 -74
-348 -5 -348 -5 -3 -57 -3 -58 648 0 c376 0 643 4 638 9 -6 5 -230 87 -500
182 -269 95 -493 175 -496 178 -4 3 134 159 306 346 172 187 309 341 306 342
-3 2 -210 -53 -460 -122 -250 -68 -457 -123 -459 -120 -2 2 53 209 123 460 70
251 125 458 123 460 -2 2 -154 -133 -338 -300 -184 -168 -338 -301 -341 -297
-4 4 -66 192 -139 417 -120 372 -140 430 -140 413z"/>
<path d="M870 2101 l0 -179 -31 29 c-40 37 -98 52 -179 47 -105 -8 -171 -56
-219 -158 -34 -72 -42 -214 -16 -292 35 -107 96 -167 192 -189 68 -16 130 -5
197 36 l56 34 0 -35 0 -34 125 0 125 0 0 460 0 460 -125 0 -125 0 0 -179z
m-46 -261 c32 -38 46 -88 46 -163 0 -122 -40 -197 -105 -197 -88 0 -136 189
-81 322 31 72 96 90 140 38z"/>
<path d="M1269 2241 c-34 -34 -39 -44 -39 -86 0 -42 5 -52 39 -86 32 -32 46
-39 77 -39 52 0 103 29 126 71 22 41 23 71 3 109 -25 48 -62 70 -118 70 -44 0
-53 -4 -88 -39z"/>
<path d="M2493 2260 c-61 -37 -79 -108 -43 -167 64 -106 231 -69 247 55 5 43
-26 98 -67 119 -37 19 -101 16 -137 -7z"/>
<path d="M4150 1820 l0 -460 120 0 120 0 0 460 0 460 -120 0 -120 0 0 -460z"/>
<path d="M7346 2246 c-31 -29 -36 -39 -36 -80 0 -58 21 -101 60 -121 67 -34
145 -9 181 60 22 42 23 47 9 87 -20 57 -67 88 -131 88 -40 0 -53 -5 -83 -34z"/>
<path d="M4754 2237 c-120 -31 -204 -123 -204 -226 0 -79 46 -144 181 -257 89
-74 112 -108 107 -161 -7 -88 -116 -99 -249 -26 -3 2 -23 -28 -44 -68 -41 -79
-42 -76 30 -109 96 -44 255 -49 356 -11 109 42 173 129 173 237 0 110 -42 170
-242 345 -38 33 -52 53 -52 72 0 52 69 71 161 44 l45 -14 33 60 c28 49 31 61
20 72 -43 41 -224 65 -315 42z"/>
<path d="M2983 2153 l-93 -15 0 -74 0 -74 -45 0 -45 0 0 -60 0 -60 45 0 45 0
0 -177 c0 -98 5 -195 10 -215 32 -112 149 -151 338 -112 42 9 80 18 84 20 6 4
-1 30 -27 101 -3 9 -13 9 -39 2 -44 -12 -69 0 -96 44 -18 28 -20 51 -20 190
l0 157 80 0 80 0 0 55 0 55 -80 0 -80 0 0 90 0 90 -32 -1 c-18 -1 -75 -8 -125
-16z"/>
<path d="M7832 1992 c-89 -32 -142 -100 -142 -181 0 -65 31 -113 107 -168 91
-66 103 -79 103 -112 0 -57 -43 -66 -129 -26 -30 14 -57 22 -61 18 -4 -4 -15
-30 -24 -56 -14 -38 -15 -51 -6 -62 21 -25 120 -49 205 -49 106 -1 161 20 219
85 47 52 58 89 45 148 -11 49 -35 78 -120 142 -82 63 -103 92 -88 122 9 15 19
18 57 15 26 -3 54 -8 62 -11 12 -6 23 7 43 49 15 31 27 58 25 59 -11 11 -124
36 -178 40 -49 4 -78 1 -118 -13z"/>
<path d="M1752 1974 c-103 -51 -170 -188 -159 -323 11 -127 61 -218 146 -264
93 -51 172 -48 266 8 31 19 60 35 63 35 2 0 2 -28 -1 -62 -6 -67 -25 -101 -75
-133 -31 -20 -31 -21 -32 -102 0 -94 -2 -93 85 -69 145 38 226 128 254 282 6
32 11 185 11 346 l0 288 -125 0 -125 0 0 -27 0 -26 -22 20 c-64 59 -197 71
-286 27z m256 -127 c37 -39 52 -91 52 -180 0 -100 -26 -164 -76 -183 -42 -17
-73 0 -101 56 -45 88 -24 285 34 319 30 17 68 12 91 -12z"/>
<path d="M3585 1991 c-31 -8 -110 -43 -134 -59 -11 -8 -8 -20 18 -66 l32 -56
44 25 c61 36 136 47 172 25 16 -9 34 -24 41 -33 15 -17 12 -18 -118 -47 -182
-41 -259 -112 -260 -238 0 -93 46 -155 137 -182 52 -16 114 -2 189 41 l52 29
6 -35 7 -35 131 0 c120 0 130 1 123 18 -4 9 -11 116 -14 237 -6 200 -9 224
-29 262 -27 51 -76 90 -138 109 -49 15 -206 18 -259 5z m180 -333 c-19 -136
-84 -200 -141 -137 -23 26 -22 84 3 118 21 28 96 71 126 71 17 0 18 -5 12 -52z"/>
<path d="M6285 1978 c-22 -11 -48 -27 -57 -36 -17 -14 -18 -13 -18 16 l0 32
-125 0 -125 0 0 -315 0 -315 124 0 125 0 3 220 c3 206 4 221 24 240 11 11 36
23 55 26 29 5 41 1 65 -19 l29 -25 3 -216 3 -216 125 0 126 0 -4 243 c-3 225
-5 245 -24 282 -43 79 -96 105 -211 105 -59 -1 -88 -6 -118 -22z"/>
<path d="M7055 1978 c-14 -13 -37 -50 -50 -83 l-25 -60 0 78 0 77 -125 0 -125
0 0 -315 0 -315 125 0 125 0 0 160 c0 225 18 260 133 260 l58 0 39 86 c22 47
40 88 40 90 0 2 -18 13 -40 24 -54 28 -121 27 -155 -2z"/>
<path d="M8405 1982 c-87 -31 -148 -83 -191 -162 -15 -27 -19 -56 -19 -130 0
-84 3 -101 27 -146 52 -99 153 -169 271 -189 l37 -6 0 79 c0 72 -2 81 -26 103
-31 28 -54 70 -54 97 0 18 10 19 188 18 l187 -1 -1 65 c-3 129 -48 213 -139
259 -66 34 -204 41 -280 13z m172 -97 c22 -16 43 -70 43 -112 0 -22 -3 -23
-86 -23 l-87 0 5 50 c8 84 68 125 125 85z"/>
<path d="M1230 1675 l0 -315 125 0 125 0 0 315 0 315 -125 0 -125 0 0 -315z"/>
<path d="M2440 1675 l0 -315 125 0 125 0 0 315 0 315 -125 0 -125 0 0 -315z"/>
<path d="M7310 1675 l0 -316 123 3 122 3 0 310 0 310 -122 3 -123 3 0 -316z"/>
<path d="M5182 1748 c4 -208 6 -238 25 -278 33 -75 104 -120 189 -120 51 0
132 29 169 61 l34 30 3 -38 3 -38 123 -3 122 -3 0 311 0 310 -124 0 -125 0 -3
-206 -3 -206 -33 -29 c-40 -35 -65 -37 -97 -4 -25 24 -25 24 -25 235 l0 210
-131 0 -131 0 4 -232z"/>
<path d="M8725 1528 c-32 -19 -118 -36 -153 -30 l-32 4 0 -77 0 -78 62 7 c68
8 218 52 218 65 0 13 -61 121 -68 121 -4 0 -16 -6 -27 -12z"/>
<path d="M6787 1276 c-99 -28 -167 -114 -167 -214 0 -80 19 -131 66 -178 68
-69 185 -92 277 -55 27 11 27 11 12 42 -12 23 -19 28 -29 20 -13 -11 -51 -16
-105 -13 -51 3 -117 73 -126 134 -12 80 17 151 77 188 37 22 107 27 140 9 18
-9 24 -8 35 7 19 27 16 39 -14 53 -42 19 -113 22 -166 7z"/>
<path d="M3850 1045 l0 -235 130 0 130 0 0 35 0 35 -85 0 -85 0 0 200 0 200
-45 0 -45 0 0 -235z"/>
<path d="M1666 1184 c-9 -35 -16 -67 -16 -72 0 -12 147 -49 233 -57 l67 -7 0
78 0 79 -83 1 c-55 1 -99 8 -134 22 l-51 19 -16 -63z"/>
<path d="M7838 1233 c-25 -4 -28 -8 -28 -44 0 -35 -3 -39 -25 -39 -20 0 -25
-5 -25 -25 0 -20 5 -25 25 -25 l25 0 0 -120 c0 -115 1 -122 25 -145 19 -20 34
-25 74 -25 64 0 80 7 74 31 -4 14 -14 19 -39 19 -45 0 -54 24 -54 146 l0 94
46 0 c41 0 45 2 42 23 -2 18 -10 23 -45 25 l-43 3 0 45 c0 29 -4 44 -12 43 -7
-1 -25 -4 -40 -6z"/>
<path d="M4233 1129 c-59 -29 -88 -89 -80 -167 3 -31 14 -67 25 -81 24 -33 80
-71 103 -71 29 0 24 46 -6 73 -16 13 -28 37 -32 60 l-6 39 34 -2 c19 -1 64 -2
102 -1 l67 1 0 30 c0 44 -23 93 -55 118 -36 28 -96 29 -152 1z"/>
<path d="M4640 1130 c0 -10 12 -31 27 -46 l27 -27 -50 -17 c-111 -38 -144 -68
-144 -131 0 -26 8 -47 26 -68 33 -39 76 -41 125 -5 l34 25 3 -25 c3 -23 8 -26
46 -26 l42 0 -3 123 c-5 150 -7 163 -40 193 -33 31 -93 34 -93 4z"/>
<path d="M4852 983 l3 -168 43 -3 42 -3 0 114 c0 127 9 147 67 147 22 0 33 6
42 26 27 59 -50 77 -93 22 l-26 -33 0 33 c0 31 -2 32 -40 32 l-40 0 2 -167z"/>
<path d="M5110 980 l0 -170 40 0 40 0 0 111 c0 141 13 169 77 169 53 0 63 -26
63 -162 l0 -118 40 0 40 0 0 130 c0 177 -17 210 -112 210 -25 0 -56 -8 -75
-20 -33 -20 -33 -20 -33 0 0 17 -7 20 -40 20 l-40 0 0 -170z"/>
<path d="M5500 980 l0 -170 40 0 40 0 0 170 0 170 -40 0 -40 0 0 -170z"/>
<path d="M5664 1137 c-2 -7 -3 -82 -2 -167 l3 -155 42 -3 41 -3 4 119 c3 133
16 162 68 162 57 0 65 -16 69 -154 l3 -126 39 0 39 0 0 125 c0 142 -13 189
-55 205 -42 16 -97 12 -132 -10 -33 -20 -33 -20 -33 0 0 17 -7 20 -40 20 -24
0 -43 -5 -46 -13z"/>
<path d="M6118 1135 c-85 -46 -102 -206 -30 -286 38 -43 105 -51 156 -19 l36
22 0 -36 c0 -83 -46 -121 -126 -106 -92 17 -89 17 -92 -11 -3 -22 2 -29 29
-38 18 -6 59 -11 93 -11 82 0 125 22 154 80 20 41 22 57 22 232 l0 188 -40 0
c-34 0 -40 -3 -40 -21 l0 -20 -26 20 c-32 25 -96 27 -136 6z m131 -54 c57 -57
28 -211 -42 -219 -52 -6 -88 76 -74 166 11 65 75 94 116 53z"/>
<path d="M7118 1130 c-102 -54 -108 -222 -11 -294 37 -27 122 -33 178 -12 41
16 43 19 33 41 -10 23 -12 23 -39 10 -41 -21 -84 -18 -114 8 -25 22 -49 80
-37 91 3 3 50 6 104 6 l98 0 0 28 c-1 38 -33 106 -61 126 -32 22 -105 20 -151
-4z"/>
<path d="M7400 980 l0 -170 39 0 39 0 3 119 c5 136 16 161 75 161 57 0 64 -16
64 -156 l0 -124 45 0 45 0 0 113 c0 131 -11 178 -47 207 -34 26 -97 26 -141 0
-40 -25 -42 -25 -42 0 0 17 -7 20 -40 20 l-40 0 0 -170z"/>
<path d="M8120 1139 c-61 -25 -93 -81 -93 -160 1 -86 45 -152 111 -165 31 -6
32 -5 32 25 0 17 -5 31 -10 31 -15 0 -50 61 -50 87 0 20 4 21 97 22 53 1 98 3
101 5 2 3 1 26 -3 52 -10 69 -57 114 -116 113 -24 0 -55 -5 -69 -10z"/>
<path d="M8380 980 l0 -170 39 0 38 0 5 110 c6 126 18 150 73 150 25 0 34 6
44 26 26 59 -46 76 -91 22 l-27 -33 -1 33 c0 31 -2 32 -40 32 l-40 0 0 -170z"/>
<path d="M8666 1125 c-19 -18 -26 -34 -26 -62 0 -32 7 -44 53 -88 62 -58 72
-78 51 -100 -19 -19 -37 -19 -74 0 -27 14 -30 14 -41 -6 -17 -33 9 -52 81 -57
57 -4 61 -3 95 31 54 54 42 105 -40 172 -47 39 -56 64 -29 86 14 11 21 11 45
-3 28 -16 29 -16 40 4 16 31 -12 48 -76 48 -41 0 -58 -5 -79 -25z"/>
</g>
</svg>
